<svg width="24" height="24" viewBox="0 0 24 24" fill="none" xmlns="http://www.w3.org/2000/svg">
<path d="M22.5 18.0915C22.5 18.3584 22.4466 18.7057 22.3399 19.1333C22.2332 19.561 22.1264 19.8994 22.0197 20.1485C21.824 20.6473 21.2186 21.1817 20.2035 21.7518C19.2773 22.2506 18.3603 22.5 17.4524 22.5C17.1856 22.5 16.9185 22.4822 16.6511 22.4466C16.3837 22.411 16.0987 22.3487 15.7963 22.2598C15.4939 22.1708 15.2623 22.0996 15.1017 22.0462C14.941 21.9928 14.665 21.895 14.2736 21.7526C13.8822 21.6102 13.6329 21.5213 13.5256 21.4857C12.5639 21.1292 11.7002 20.7107 10.9347 20.2302C9.67051 19.4467 8.35268 18.3779 6.9812 17.0237C5.60972 15.6696 4.54122 14.3514 3.7757 13.069C3.29482 12.3032 2.88538 11.4393 2.54737 10.4772C2.51179 10.3883 2.42284 10.1388 2.28053 9.729C2.13821 9.31915 2.03147 9.04304 1.96031 8.90067C1.88915 8.75831 1.81799 8.52669 1.74683 8.20582C1.67567 7.88494 1.61341 7.59994 1.56004 7.3508C1.50667 7.10167 1.48888 6.84336 1.50667 6.57587C1.50667 5.64939 1.7649 4.7232 2.28136 3.79728C2.8334 2.78183 3.35875 2.17623 3.85742 1.98048C4.10648 1.8737 4.44476 1.76693 4.87227 1.66016C5.29979 1.55339 5.64696 1.5 5.91381 1.5C6.05613 1.5 6.16287 1.5178 6.23403 1.55339C6.41192 1.60677 6.67905 1.98075 7.0354 2.67533C7.14214 2.87108 7.28474 3.14719 7.46319 3.50365C7.64164 3.86012 7.81982 4.17182 7.99772 4.43875C8.17561 4.70568 8.32711 4.97289 8.45219 5.24038C8.48777 5.27597 8.57672 5.40054 8.71904 5.61408C8.86135 5.82763 8.96809 6.00586 9.03925 6.14878C9.11041 6.2917 9.14599 6.43406 9.14599 6.57587C9.14599 6.77162 9.00367 7.01214 8.71904 7.29742C8.4344 7.5827 8.1228 7.85881 7.78424 8.12574C7.44568 8.39267 7.14297 8.65988 6.87613 8.92737C6.60928 9.19486 6.46668 9.41758 6.44834 9.59553C6.44834 9.68451 6.47502 9.80018 6.52839 9.94254C6.58176 10.0849 6.61734 10.1828 6.63513 10.2362C6.65292 10.2896 6.72408 10.4141 6.84861 10.6099C6.97314 10.8056 7.0354 10.8946 7.0354 10.8768C7.78313 12.2482 8.64677 13.4238 9.62632 14.4036C10.6059 15.3835 11.7722 16.2474 13.1253 16.9954C13.1431 16.9954 13.2321 17.0488 13.3922 17.1555C13.5523 17.2623 13.6768 17.3335 13.7658 17.3691C13.8547 17.4047 13.9526 17.4492 14.0593 17.5025C14.166 17.5559 14.2817 17.5737 14.4062 17.5559C14.5841 17.5559 14.8068 17.4136 15.0742 17.1288C15.3416 16.8441 15.6087 16.5413 15.8755 16.2204C16.1424 15.8996 16.4184 15.5879 16.7036 15.2853C16.9888 14.9828 17.2381 14.8405 17.4516 14.8583C17.5761 14.8583 17.7095 14.8938 17.8519 14.965C17.9942 15.0362 18.1724 15.143 18.3864 15.2853C18.6004 15.4277 18.725 15.5167 18.76 15.5523C19.009 15.6946 19.2762 15.8462 19.5613 16.0069C19.8465 16.1676 20.167 16.3458 20.5228 16.5416C20.8786 16.7373 21.1458 16.8889 21.3242 16.9962C22.0186 17.3349 22.3924 17.5932 22.4458 17.7711C22.4814 17.8423 22.4992 17.9491 22.4992 18.0915H22.5Z" fill="#161E61"/>
</svg>
