<svg width="24" height="24" viewBox="0 0 24 24" fill="none" xmlns="http://www.w3.org/2000/svg">
<path fill-rule="evenodd" clip-rule="evenodd" d="M6.16652 3.26957C7.89323 2.11581 9.9233 1.5 12 1.5C14.7838 1.50306 17.4528 2.61029 19.4212 4.57875C21.3897 6.54722 22.4969 9.21616 22.5 12C22.5 14.0767 21.8842 16.1068 20.7304 17.8335C19.5767 19.5602 17.9368 20.906 16.0182 21.7007C14.0996 22.4955 11.9884 22.7034 9.95156 22.2982C7.91476 21.8931 6.04383 20.8931 4.57538 19.4246C3.10693 17.9562 2.1069 16.0852 1.70176 14.0484C1.29661 12.0116 1.50455 9.90045 2.29927 7.98182C3.09399 6.0632 4.4398 4.42332 6.16652 3.26957ZM14.725 14.6284C14.8135 14.628 14.9018 14.6163 14.9877 14.5936C15.1216 14.5582 15.2472 14.4967 15.3572 14.4125C15.4672 14.3284 15.5594 14.2234 15.6287 14.1035C15.6979 13.9836 15.7427 13.8511 15.7606 13.7138C15.7784 13.5765 15.769 13.437 15.7327 13.3034C15.6964 13.1697 15.634 13.0446 15.5492 12.9351C15.4644 12.8257 15.3587 12.7341 15.2383 12.6657L13.0354 11.3941V6.74998C13.0354 6.4715 12.9248 6.20443 12.7279 6.00752C12.533 5.81262 12.2694 5.70225 11.994 5.70002L11.9854 5.69998C11.7069 5.69998 11.4399 5.81061 11.243 6.00752C11.046 6.20443 10.9354 6.4715 10.9354 6.74998V12C10.9354 12.1843 10.9839 12.3653 11.0761 12.525C11.1683 12.6846 11.3008 12.8171 11.4604 12.9093L14.1883 14.4843C14.3078 14.5543 14.4399 14.6 14.5771 14.6188C14.6262 14.6255 14.6756 14.6287 14.725 14.6284Z" fill="white"/>
</svg>
