<svg width="24" height="24" viewBox="0 0 24 24" fill="none" xmlns="http://www.w3.org/2000/svg">
<path d="M11.9851 24C11.3115 22.8928 10.6486 21.8036 9.98935 20.7143C8.33039 17.984 6.67142 15.2537 5.01245 12.5198C4.19909 11.1761 3.78345 9.72499 3.79062 8.15202C3.80495 4.82334 5.86522 1.80638 8.95743 0.580964C13.25 -1.11742 18.1015 1.03602 19.678 5.37155C20.5666 7.82238 20.3409 10.2087 19.0044 12.4446C16.7112 16.2749 14.375 20.0801 12.0604 23.8961C12.0389 23.9283 12.0174 23.9534 11.9851 24ZM15.7115 8.20218C15.7115 6.14549 14.049 4.48294 11.9887 4.48294C9.93561 4.47936 8.26589 6.14549 8.26231 8.1986C8.25872 10.2625 9.93202 11.9393 11.9851 11.9393C14.049 11.9358 15.7115 10.2696 15.7115 8.20218Z" fill="white"/>
<path d="M11.9888 10.4416C10.7526 10.4416 9.76009 9.44914 9.75651 8.20939C9.75293 6.97322 10.749 5.96996 11.9816 5.96638C13.2142 5.96279 14.2318 6.97681 14.2282 8.20939C14.221 9.44914 13.2249 10.4416 11.9888 10.4416Z" fill="white"/>
</svg>
