<svg width="24" height="24" viewBox="0 0 24 24" fill="none" xmlns="http://www.w3.org/2000/svg">
<path d="M21.9748 9.61116V9.74324C21.9748 12.7447 21.9748 15.7461 21.9748 18.7475C21.9748 19.2212 21.8197 19.5946 21.4524 19.8406C21.2729 19.9636 21.0729 20 20.8607 20C19.5833 20 18.3059 20 17.0326 20C12.3965 20 7.7604 20 3.12429 20C2.65905 20 2.30399 19.8042 2.10402 19.3259C2.03872 19.1665 2.00607 18.9752 2.00607 18.7931C2.00199 15.7689 2.00199 12.7447 2.00199 9.72047C2.00199 9.68858 2.00607 9.65215 2.00607 9.6066C2.23461 9.72047 2.45907 9.82977 2.67945 9.93908C5.37705 11.2736 8.07464 12.6126 10.7722 13.9471C11.5844 14.3478 12.3965 14.3478 13.2046 13.9471C16.0817 12.5215 18.9548 11.1005 21.832 9.67492C21.8769 9.6567 21.9177 9.63848 21.9748 9.61116Z" fill="white"/>
<path d="M11.9885 4C14.9472 4 17.906 4 20.8648 4C21.379 4 21.7749 4.28693 21.93 4.79249C21.9708 4.92457 21.9912 5.06576 21.9912 5.20695C22.0034 5.64873 21.9993 6.09508 21.9993 6.53686C21.9953 7.0743 21.7749 7.45687 21.3382 7.67549C18.7753 8.95075 16.2083 10.226 13.6413 11.4967C13.2495 11.688 12.8577 11.8793 12.47 12.0797C12.1517 12.2437 11.8375 12.2346 11.5191 12.0751C10.2132 11.4239 8.90315 10.7817 7.59312 10.1349C5.94845 9.31967 4.30377 8.50897 2.65909 7.69371C2.24282 7.4842 2.01836 7.11984 2.00612 6.60518C1.99796 6.12696 1.99796 5.64873 2.00612 5.17506C2.01836 4.46911 2.4632 4 3.1121 4C5.71991 4 8.32772 4 10.9314 4H11.9885Z" fill="white"/>
</svg>
